<?xml version="1.0" encoding="UTF-8"?>
<svg version="1.1" xmlns="http://www.w3.org/2000/svg" width="500" height="499">
<path d="M0 0 C0.82916931 0.0062439 1.65833862 0.01248779 2.51263428 0.0189209 C42.20601002 0.35117158 84.57170734 4.42553701 122.84960938 15.39111328 C125.14728898 16.04170512 127.45409144 16.64668596 129.765625 17.24609375 C137.53169852 19.28528361 144.96917976 21.55366948 152.328125 24.81640625 C154.94020336 25.97351114 157.57756925 26.99176476 160.25 28 C164.15871117 29.54968163 167.60981515 31.43599484 171.11328125 33.75390625 C172.52035352 34.68321485 173.96489459 35.55625163 175.42578125 36.3984375 C183.38637695 41.35116017 192.64654322 49.5845862 195.57127059 58.79999387 C196.0774054 61.39720242 196.13062169 63.81452984 196.13701439 66.46181679 C196.1446262 68.13654247 196.1446262 68.13654247 196.15239179 69.845101 C196.15288955 71.07173189 196.15338731 72.29836278 196.15390015 73.56216431 C196.1582824 74.8652631 196.16266465 76.1683619 196.1671797 77.51094854 C196.17913526 81.13110775 196.18479128 84.75125365 196.18936086 88.37142873 C196.19532078 92.27479884 196.20692962 96.17815306 196.21765137 100.08151245 C196.24216592 109.5097052 196.25680087 118.93790321 196.26971143 128.36611801 C196.27342397 131.02935846 196.27739715 133.69259838 196.2814641 136.3558383 C196.30670056 152.89684054 196.32875203 169.43784361 196.34119225 185.97886086 C196.3441219 189.80963774 196.34708357 193.64041459 196.35009766 197.47119141 C196.35084371 198.42330302 196.35158976 199.37541464 196.35235842 200.35637812 C196.36501092 215.7785567 196.39823324 231.20061996 196.43989949 246.62274463 C196.48233341 262.45891411 196.50588894 278.29502456 196.51111281 294.13125074 C196.5145252 303.02166763 196.52626016 311.91190427 196.55921555 320.80226517 C196.58723722 328.37402397 196.59820611 335.94556558 196.58702008 343.51737221 C196.58183887 347.3789706 196.58468464 351.2401143 196.60948563 355.10164642 C196.63618208 359.29338984 196.62389971 363.48413574 196.60800171 367.67593384 C196.6218838 368.8891804 196.63576588 370.10242696 196.65006864 371.35243857 C196.5448671 382.61828321 192.46335717 390.43558862 184.7265625 398.5 C160.63466102 420.58999562 124.33951558 427.20437181 93.125 432.8125 C92.33953796 432.95384369 91.55407593 433.09518738 90.74481201 433.24081421 C69.68403873 436.98603701 48.60617289 439.4776256 27.25 440.6875 C26.16583801 440.75003967 25.08167603 440.81257935 23.96466064 440.87701416 C-27.13852567 443.75769713 -79.3996909 443.47290181 -130 435 C-131.92005859 434.68506592 -131.92005859 434.68506592 -133.87890625 434.36376953 C-158.28623873 430.31740236 -183.46160519 425.49155688 -206 415 C-206.65210449 414.70125977 -207.30420898 414.40251953 -207.97607422 414.09472656 C-222.38882831 407.43748728 -236.87663974 399.35120361 -244.13734341 384.49932671 C-245.88381727 379.43936565 -245.54654312 374.16411574 -245.50793457 368.86743164 C-245.51729451 366.89328954 -245.51729451 366.89328954 -245.52684355 364.87926579 C-245.54349207 361.24133868 -245.53531121 357.60383303 -245.52289867 353.96590471 C-245.51383202 350.03671999 -245.5278259 346.10760671 -245.53881836 342.17843628 C-245.55659098 334.48718334 -245.55276923 326.79608667 -245.5411678 319.10482764 C-245.53212879 312.85316674 -245.53091149 306.60154959 -245.53526306 300.34988403 C-245.53587599 299.45961142 -245.53648893 298.5693388 -245.53712043 297.65208822 C-245.53839935 295.84343233 -245.53969621 294.03477646 -245.5410108 292.22612059 C-245.55241291 275.27226296 -245.53930868 258.31849189 -245.51780933 241.36464846 C-245.49993868 226.82215719 -245.50304289 212.27979365 -245.52148438 197.73730469 C-245.5428976 180.84350068 -245.55131431 163.94977252 -245.53903532 147.05595684 C-245.53776114 145.25400989 -245.53650366 143.45206294 -245.53526306 141.65011597 C-245.53464596 140.76355806 -245.53402886 139.87700015 -245.53339306 138.96357685 C-245.52994151 132.7205012 -245.53576428 126.47747371 -245.54518127 120.23440552 C-245.55640766 112.62461994 -245.5533478 105.01499938 -245.5320583 97.40523267 C-245.52155643 93.52368289 -245.51741114 89.64240809 -245.53065491 85.76086044 C-245.54480083 81.55119106 -245.52789364 77.34221407 -245.50793457 73.13256836 C-245.51685746 71.9084427 -245.52578034 70.68431704 -245.53497362 69.42309666 C-245.4132097 56.20137073 -239.320486 49.19745262 -230.140625 40.171875 C-226.72189324 37.06678835 -223.25522448 34.92161511 -219.0703125 32.98828125 C-216.96001781 31.98091416 -215.00549061 30.82600673 -213 29.625 C-199.72577997 22.25544151 -184.60076698 18.71568863 -170 15 C-169.07896484 14.76361816 -168.15792969 14.52723633 -167.20898438 14.28369141 C-157.38952435 11.78359147 -147.70276328 9.55749575 -137.6171875 8.45703125 C-134.72692791 8.09184726 -131.92824261 7.62364747 -129.0703125 7.078125 C-122.44810031 5.84754336 -115.78512517 5.012851 -109.10253906 4.19506836 C-107.00277081 3.93783943 -104.9037104 3.67534428 -102.8046875 3.41210938 C-68.68047071 -0.83578418 -34.32976931 -0.27285801 0 0 Z M-94.97668457 23.77215576 C-97.8385158 24.09442472 -100.70407241 24.37463208 -103.5700531 24.65719604 C-121.07588979 26.3940451 -138.09539876 29.11117435 -155.20263672 33.32568359 C-157.65080185 33.91582429 -160.0992241 34.45383039 -162.56640625 34.95703125 C-183.07873786 39.20622176 -209.05653446 46.33585826 -223 63 C-224.47896861 65.95793723 -224.4355582 67.70220224 -224 71 C-213.67037965 87.58999632 -186.44134751 94.7940096 -168.75 99.3125 C-166.90521822 99.71193109 -165.06038928 100.1111472 -163.2151947 100.50866699 C-160.87615761 101.0274684 -158.54823004 101.58335015 -156.21948242 102.14648438 C-144.0010656 105.0708876 -131.83964484 107.25429112 -119.37768555 108.83081055 C-116.56456647 109.18723817 -113.75400061 109.56012708 -110.94335938 109.93554688 C-106.21497393 110.55900243 -101.48260798 111.13583581 -96.74472046 111.68225098 C-94.99463159 111.88485413 -93.24520303 112.09330637 -91.49673462 112.30944824 C-71.81208817 114.69701232 -51.95113168 114.37466707 -32.15551758 114.37060547 C-28.12375711 114.37044416 -24.09245705 114.38415956 -20.06079102 114.41162109 C6.49534854 114.5896677 32.52129797 113.498262 58.88784981 110.25920296 C61.02171597 109.99733502 63.15619038 109.74102218 65.2908783 109.48594666 C82.50180698 107.4184627 99.19961263 104.26869048 116 100 C117.61588495 99.60676892 119.23177033 99.21353961 120.84765625 98.8203125 C138.15333441 94.46086686 162.99811964 87.63039786 174.09375 72.64453125 C175.71988456 69.69365776 175.86971514 68.27815708 175 65 C161.72594081 44.0564844 126.58762771 37.4095744 103.91543579 32.25756836 C81.85417097 27.36871706 59.48452109 24.98022866 37 23 C35.99994934 22.9078421 34.99989868 22.8156842 33.96954346 22.72073364 C15.27309245 21.02143682 -3.33742458 20.63630248 -22.09403992 20.68214417 C-24.4115312 20.68758578 -26.72901226 20.68995208 -29.04650879 20.6920166 C-51.13247248 20.72266819 -73.01930747 21.21456243 -94.97668457 23.77215576 Z M173.3046875 99.21484375 C108.29011467 145.31038494 -6.95542273 137.8441763 -126.8581543 127.96875 C-129.37106932 127.53208426 -131.88291756 127.08922611 -134.39355469 126.63964844 C-137.88528156 126.02034676 -141.38176799 125.44671889 -144.8828125 124.8828125 C-172.07842265 120.36437622 -200.1067477 113.13895914 -224 99 C-225.657673 102.31534601 -225.16313725 106.01910158 -225.16796875 109.6640625 C-225.17129715 110.53010101 -225.17462555 111.39613953 -225.17805481 112.28842163 C-225.18312481 114.12603219 -225.18546311 115.96365198 -225.18530273 117.80126953 C-225.18747505 120.59293178 -225.20559039 123.38418971 -225.22460938 126.17578125 C-225.22754624 127.96354032 -225.22952907 129.75130126 -225.23046875 131.5390625 C-225.23765427 132.36644928 -225.24483978 133.19383606 -225.25224304 134.04629517 C-225.22910746 140.01527632 -225.00421084 146.05474272 -221.54150391 151.14331055 C-217.42076194 154.93722684 -213.28428478 158.10557572 -208.375 160.8125 C-207.25001099 161.43427124 -207.25001099 161.43427124 -206.10229492 162.06860352 C-198.782497 165.91165999 -191.10915023 168.73850429 -183.3125 171.4375 C-182.12640137 171.85040283 -180.94030273 172.26330566 -179.71826172 172.6887207 C-172.36257075 175.14382831 -165.0521737 176.91819463 -157.43237305 178.3449707 C-154.59479693 178.88648978 -151.81433164 179.50140212 -149.015625 180.2109375 C-136.0543869 183.42675077 -122.99452106 185.15441605 -109.75 186.6875 C-108.87621704 186.78996033 -108.00243408 186.89242065 -107.10217285 186.99798584 C-100.74127087 187.73613184 -94.37478725 188.39382189 -88 189 C-87.00749237 189.09536041 -86.01498474 189.19072083 -84.99240112 189.28897095 C-66.5718095 191.00169254 -48.23470214 191.34523708 -29.75170898 191.31567383 C-26.64153494 191.31106413 -23.53175412 191.31790801 -20.42163086 191.33618164 C2.53557177 191.46960429 25.16000492 190.30453883 48 188 C48.75858999 187.92382698 49.51717999 187.84765396 50.29875755 187.76917267 C52.63450269 187.53382299 54.97002017 187.29636877 57.30541992 187.05761719 C58.00796906 186.98587532 58.71051819 186.91413345 59.43435669 186.84021759 C75.20977609 185.20569654 90.50368657 182.5233113 105.91552734 178.72753906 C109.23050045 177.94563152 112.55937022 177.27653078 115.8984375 176.60546875 C123.1031558 175.07342525 129.95239577 172.87382295 136.875 170.375 C138.09082764 169.93696045 139.30665527 169.4989209 140.55932617 169.04760742 C160.56260084 161.82322806 160.56260084 161.82322806 175.06054688 147.05297852 C176.45373811 142.52546905 176.24489615 138.15843238 176.1953125 133.44921875 C176.1924826 132.43527542 176.18965271 131.42133209 176.18673706 130.37666321 C176.17556625 127.14682073 176.15046711 123.91725829 176.125 120.6875 C176.1149662 118.49414464 176.10584105 116.30078492 176.09765625 114.10742188 C176.07563707 108.73818614 176.04219023 103.36911308 176 98 C174.78786636 97.90292038 174.78786636 97.90292038 173.3046875 99.21484375 Z M-224 176 C-225.71456952 179.42913903 -225.18502843 183.36223208 -225.203125 187.13671875 C-225.20882507 188.04952103 -225.21452515 188.9623233 -225.22039795 189.90278625 C-225.2298562 191.83874348 -225.2363852 193.77471686 -225.24023438 195.71069336 C-225.24990431 198.65833125 -225.28090494 201.60526129 -225.3125 204.55273438 C-225.3190337 206.4348917 -225.32428273 208.31705401 -225.328125 210.19921875 C-225.3404718 211.07551437 -225.3528186 211.95181 -225.36553955 212.85466003 C-225.343431 218.99775922 -224.58822638 224.08671201 -220.3515625 228.85546875 C-219.78179687 229.29503906 -219.21203125 229.73460937 -218.625 230.1875 C-218.00625 230.67347656 -217.3875 231.15945313 -216.75 231.66015625 C-216.1725 232.10230469 -215.595 232.54445313 -215 233 C-214.21625 233.70125 -213.4325 234.4025 -212.625 235.125 C-209.69701019 237.21642129 -206.79981921 238.54937915 -203.4921875 239.9375 C-201.83277518 240.64496105 -200.19102313 241.39538419 -198.5703125 242.1875 C-190.34232765 246.1889516 -181.79427728 248.60299635 -173 251 C-171.9277417 251.30196289 -170.8554834 251.60392578 -169.75073242 251.91503906 C-159.85510182 254.64714381 -149.90172415 256.74324843 -139.8125 258.625 C-138.58604263 258.85527893 -138.58604263 258.85527893 -137.33480835 259.09020996 C-126.20723009 261.16895401 -115.18109519 262.97725873 -103.88037109 263.77880859 C-100.25609745 264.05712627 -96.63830219 264.39717477 -93.01953125 264.73828125 C-52.05201047 268.57776466 -11.23496977 269.14154646 29.81707764 266.15820312 C32.01468819 265.9989355 34.21263035 265.84499203 36.41064453 265.69140625 C54.74512843 264.38967324 72.69660926 262.27634575 90.7421875 258.65283203 C93.97014741 258.00598215 97.20285437 257.38977131 100.4375 256.77734375 C111.94388164 254.54804401 122.97397312 251.72612385 133.98925781 247.71533203 C136.14054336 246.95000096 138.30748046 246.2480346 140.48046875 245.546875 C153.0465031 241.37212171 167.40994046 235.38508931 175 224 C176.42034327 219.22013867 176.12620572 214.26322203 176.09765625 209.32421875 C176.0962413 208.3990596 176.09482635 207.47390045 176.09336853 206.52070618 C176.08778715 203.57627073 176.07523805 200.63191233 176.0625 197.6875 C176.05748259 195.68685006 176.05292011 193.68619892 176.04882812 191.68554688 C176.03782381 186.79033506 176.02057198 181.89518058 176 177 C175.01 176.67 174.02 176.34 173 176 C170.09319474 177.47220786 170.09319474 177.47220786 166.875 179.5625 C158.97577126 184.32122228 150.77339521 187.26276983 142 190 C140.94167969 190.33386719 139.88335937 190.66773438 138.79296875 191.01171875 C135.94578106 191.860503 133.08820855 192.6465903 130.21533203 193.40332031 C128.61855865 193.83339681 127.02623753 194.28012599 125.43701172 194.73730469 C108.98269892 199.46111186 92.484771 202.36729373 75.5625 204.8125 C74.55245911 204.95934235 73.54241821 205.10618469 72.50177002 205.25747681 C58.70339381 207.24521707 44.89870086 208.90211707 31 210 C29.92150787 210.08704193 29.92150787 210.08704193 28.82122803 210.17584229 C12.92899294 211.39390592 -3.04598219 211.18730192 -18.97436523 211.18530273 C-22.18015237 211.18522194 -25.38579518 211.19210441 -28.59155273 211.20581055 C-54.92864461 211.31649234 -81.10645606 210.6600938 -107.25 207.125 C-108.58207106 206.95004129 -109.91418503 206.77540904 -111.24633789 206.60107422 C-115.16646152 206.08338369 -119.08323758 205.54254675 -123 205 C-124.1657959 204.84273437 -125.3315918 204.68546875 -126.53271484 204.5234375 C-142.63372498 202.33111764 -158.27519251 199.07863051 -174 195 C-175.6210357 194.59481978 -177.24212541 194.18985552 -178.86328125 193.78515625 C-193.18014896 190.11321349 -207.96252041 185.29909666 -220.3203125 177.03125 C-221.95556802 175.82559582 -221.95556802 175.82559582 -224 176 Z M-224 253 C-226.17505435 255.17505435 -225.18909713 260.26751902 -225.203125 263.29296875 C-225.20882507 264.23175369 -225.21452515 265.17053864 -225.22039795 266.13777161 C-225.22986643 268.1309801 -225.23638923 270.12420437 -225.24023438 272.11743164 C-225.24990408 275.15734585 -225.28089505 278.19657383 -225.3125 281.23632812 C-225.31903341 283.17187098 -225.32428255 285.10741868 -225.328125 287.04296875 C-225.3404718 287.94943649 -225.3528186 288.85590424 -225.36553955 289.7898407 C-225.34427521 295.86362828 -224.49840075 300.2415847 -220.2734375 304.90625 C-218.2079158 306.64026822 -216.12542119 308.33975106 -214 310 C-213.39929688 310.49371094 -212.79859375 310.98742187 -212.1796875 311.49609375 C-185.05753032 331.75535691 -142.45221901 335.45447429 -110 340 C-109.2827475 340.10094971 -108.565495 340.20189941 -107.82650757 340.3059082 C-97.68151578 341.71268517 -87.5367546 342.59865694 -77.3125 343.125 C-76.51474152 343.16669312 -75.71698303 343.20838623 -74.89505005 343.25134277 C-25.44043301 345.73385886 25.00002601 345.78845 74 338 C75.36366047 337.79111619 76.72743315 337.58296381 78.09130859 337.37548828 C130.23914221 329.98865768 130.23914221 329.98865768 173.1875 302.625 C175.54009263 299.21779688 176.12537703 296.75356724 176.11352539 292.7121582 C176.11341209 291.42115959 176.11341209 291.42115959 176.11329651 290.1040802 C176.10555458 288.71644722 176.10555458 288.71644722 176.09765625 287.30078125 C176.0962413 286.35059616 176.09482635 285.40041107 176.09336853 284.4214325 C176.08776875 281.38508971 176.07521632 278.34882052 176.0625 275.3125 C176.05748497 273.25455836 176.05292207 271.19661556 176.04882812 269.13867188 C176.0377994 264.09241954 176.02053493 259.04622225 176 254 C171.16716961 254 168.17636547 255.78414412 164 257.9375 C148.44833831 265.6208715 131.17006384 271.45230948 114.02441406 274.26977539 C111.03866631 274.78441034 108.0968057 275.41797074 105.14575195 276.10375977 C91.88533409 279.17851576 78.70277765 281.31829133 65.17822266 282.83081055 C62.02708618 283.18446014 58.87889492 283.5586088 55.73046875 283.93554688 C26.8906022 287.31343983 -1.73766582 288.31737143 -30.73547363 288.19561768 C-34.06485636 288.18459543 -37.39419968 288.1851552 -40.72359753 288.18575573 C-43.95517634 288.1854846 -47.18672869 288.18001875 -50.41829872 288.17275429 C-51.94729731 288.16958969 -53.47629884 288.16760542 -55.00530052 288.16686058 C-57.11581011 288.16469521 -59.22618855 288.15595814 -61.33666992 288.14526367 C-62.53112228 288.14145187 -63.72557465 288.13764008 -64.95622253 288.13371277 C-67.51934156 288.02111527 -69.5588369 287.70761228 -72 287 C-74.08528602 286.76467268 -76.17466271 286.56468905 -78.265625 286.38671875 C-79.53180664 286.27545654 -80.79798828 286.16419434 -82.10253906 286.04956055 C-82.7770813 285.99101898 -83.45162354 285.93247742 -84.14660645 285.87216187 C-110.1050979 283.59320487 -135.6420823 280.6224787 -161.06347656 274.67871094 C-163.60755285 274.09070528 -166.15433581 273.5379627 -168.7109375 273.0078125 C-185.7750351 269.3969931 -202.19153035 263.3060903 -217.796875 255.56640625 C-220.90969096 253.95638878 -220.90969096 253.95638878 -224 253 Z M-224 329 C-224.89762107 331.69286321 -225.13035521 333.26122405 -225.14526367 336.02490234 C-225.15164352 336.82938812 -225.15802338 337.6338739 -225.16459656 338.46273804 C-225.16570938 339.32839386 -225.1668222 340.19404968 -225.16796875 341.0859375 C-225.17129715 341.97987213 -225.17462555 342.87380676 -225.17805481 343.79483032 C-225.18311739 345.68613165 -225.18546334 347.5774419 -225.18530273 349.46875 C-225.18748633 352.35692133 -225.20564111 355.2447089 -225.22460938 358.1328125 C-225.22754404 359.97135286 -225.22952835 361.80989504 -225.23046875 363.6484375 C-225.23765427 364.51004486 -225.24483978 365.37165222 -225.25224304 366.2593689 C-225.22336487 373.86968997 -223.2908663 378.35042633 -218.19921875 384.0078125 C-215.00770188 386.89888462 -211.48343718 388.75828141 -207.6484375 390.67578125 C-205 392 -205 392 -202.58203125 393.49609375 C-189.27470711 401.24695577 -172.77709319 404.29645496 -158 408 C-157.37367676 408.16076019 -156.74735352 408.32152039 -156.10205078 408.4871521 C-144.29141761 411.50555858 -132.45449528 413.46653408 -120.375 415.0625 C-119.41660217 415.1897345 -118.45820435 415.31696899 -117.47076416 415.44805908 C-110.65262087 416.34520166 -103.82926411 417.19201911 -97 418 C-96.18853516 418.09621643 -95.37707031 418.19243286 -94.54101562 418.29156494 C-71.92620075 420.92459257 -49.29031006 421.27594419 -26.54679108 421.30918121 C-25.11601867 421.31136762 -23.68524725 421.31437365 -22.25447845 421.31826019 C2.92520291 421.38635486 27.97032501 420.33920593 52.97692871 417.24560547 C55.04863681 416.99409538 57.12175999 416.76215347 59.19628906 416.53515625 C77.54515255 414.51313415 95.45861058 411.5499238 113.375 407.0625 C114.2037262 406.85761963 115.03245239 406.65273926 115.8862915 406.44165039 C126.65263665 403.75428825 136.80598013 400.39625566 147 396 C147.91733917 395.61168755 147.91733917 395.61168755 148.85321045 395.2155304 C158.55476696 391.10269156 169.29976356 386.32409809 175 377 C175.87589957 374.14045179 176.12229865 371.58154242 176.11352539 368.59863281 C176.11341209 367.3077475 176.11341209 367.3077475 176.11329651 365.99078369 C176.10813522 365.07085632 176.10297394 364.15092896 176.09765625 363.203125 C176.0962413 362.25435486 176.09482635 361.30558472 176.09336853 360.32806396 C176.08777742 357.30201038 176.07522652 354.27603117 176.0625 351.25 C176.05748385 349.19661565 176.05292115 347.14323014 176.04882812 345.08984375 C176.03781089 340.05986724 176.02055233 335.02994622 176 330 C172.59947768 330.57362684 169.82690866 331.41415164 166.75390625 332.96875 C128.31798405 351.79219643 84.81289203 358.31735094 42.51977539 361.78598022 C39.80956575 362.01617473 37.10240675 362.27243033 34.39453125 362.52856445 C15.22754521 364.26231647 -3.89559664 364.44185333 -23.125 364.4375 C-24.39582239 364.43842525 -24.39582239 364.43842525 -25.69231796 364.4393692 C-68.50933004 364.46192885 -111.0527601 362.12360311 -153 353 C-154.98535008 352.59474886 -156.97101073 352.19101513 -158.95703125 351.7890625 C-180.24096064 347.35529865 -200.67879949 341.02250953 -220 331 C-221.33233866 330.33134769 -222.66541933 329.66416614 -224 329 Z " fill="#141414" transform="translate(279,34)"/>
<path d="M0 0 C3.06544416 2.84114337 4.89414855 5.42945643 5.17700195 9.6262207 C5.24315869 13.18840522 5.28491071 16.74980294 5.3125 20.3125 C5.34150391 21.54935547 5.37050781 22.78621094 5.40039062 24.06054688 C5.40876953 25.25357422 5.41714844 26.44660156 5.42578125 27.67578125 C5.44036377 28.76802002 5.45494629 29.86025879 5.4699707 30.9855957 C4.89184704 34.69369592 3.58368018 36.33154986 1 39 C-2.22859847 40.61429923 -5.50993653 40.59570657 -9 40 C-12.02508145 38.26397895 -14.41790069 36.16419863 -16 33 C-16.27118225 28.73463193 -16.23165107 24.46050806 -16.25 20.1875 C-16.270625 18.99833984 -16.29125 17.80917969 -16.3125 16.58398438 C-16.32023438 14.86211914 -16.32023438 14.86211914 -16.328125 13.10546875 C-16.3374707 12.05512451 -16.34681641 11.00478027 -16.35644531 9.92260742 C-15.94454184 6.54528111 -15.01917158 4.71736492 -13 2 C-8.7906851 -0.80620993 -4.94592164 -0.81891489 0 0 Z " fill="#232323" transform="translate(145,168)"/>
<path d="M0 0 C1.27810547 -0.09087891 1.27810547 -0.09087891 2.58203125 -0.18359375 C5.65771803 0.54959096 7.31824153 1.73582469 9.22143555 4.26879883 C11.40877527 9.17911946 10.81045847 14.73234745 10.6875 20 C10.69136719 21.82821289 10.69136719 21.82821289 10.6953125 23.69335938 C10.58502265 33.74627918 10.58502265 33.74627918 7.1875 38.4375 C4.33488041 40.39758217 2.1678563 40.72182773 -1.25 40.4375 C-1.99121094 40.39625 -2.73242188 40.355 -3.49609375 40.3125 C-7.15858815 38.92902825 -9.18106858 36.91146565 -10.8125 33.4375 C-11.51762303 29.08905391 -11.4651541 24.83312147 -11.375 20.4375 C-11.38595703 19.27476562 -11.39691406 18.11203125 -11.40820312 16.9140625 C-11.35352545 10.54229077 -11.24164442 6.20607418 -6.8125 1.4375 C-4.41706179 0.2397809 -2.67280046 0.1322375 0 0 Z " fill="#121212" transform="translate(139.8125,397.5625)"/>
<path d="M0 0 C3.5386994 1.65139305 4.81070153 2.71605229 7 6 C7.47302142 10.61017011 7.37036358 15.24321896 7.375 19.875 C7.39949219 21.15503906 7.42398438 22.43507813 7.44921875 23.75390625 C7.45501953 25.60435547 7.45501953 25.60435547 7.4609375 27.4921875 C7.46915527 28.61995605 7.47737305 29.74772461 7.48583984 30.90966797 C6.89600309 34.66150394 5.62102328 36.30449155 3 39 C-0.47531087 40.73765543 -4.2088001 40.59585352 -8 40 C-11.28175318 37.47031526 -12.69243777 35.92268669 -14 32 C-14.31121616 27.90100747 -14.32389389 23.79689615 -14.375 19.6875 C-14.41238281 18.55892578 -14.44976562 17.43035156 -14.48828125 16.26757812 C-14.58707294 6.94274009 -14.58707294 6.94274009 -11.6015625 3.26953125 C-7.58899611 -0.23092081 -5.31714955 -0.36048472 0 0 Z " fill="#232323" transform="translate(105,388)"/>
<path d="M0 0 C3.5386994 1.65139305 4.81070153 2.71605229 7 6 C7.47302142 10.61017011 7.37036358 15.24321896 7.375 19.875 C7.39949219 21.15503906 7.42398438 22.43507812 7.44921875 23.75390625 C7.45501953 25.60435547 7.45501953 25.60435547 7.4609375 27.4921875 C7.46915527 28.61995605 7.47737305 29.74772461 7.48583984 30.90966797 C6.89600309 34.66150394 5.62102328 36.30449155 3 39 C-0.47263273 40.73631636 -4.21193013 40.60190402 -8 40 C-10.75569447 37.81840855 -12.43588747 36.12822506 -14 33 C-14.29737713 28.92285697 -14.27810009 24.83670913 -14.3125 20.75 C-14.34150391 19.61691406 -14.37050781 18.48382813 -14.40039062 17.31640625 C-14.4490875 10.9258776 -14.44895041 6.77761161 -10 2 C-6.27420911 -0.48386059 -4.41288598 -0.3804212 0 0 Z " fill="#232323" transform="translate(105,158)"/>
<path d="M0 0 C5.57894737 3.15789474 5.57894737 3.15789474 7 6 C8.25257378 14.94894378 8.98585378 25.13682104 7 34 C4.81216659 36.58881895 3.03437462 38.48281269 0 40 C-4.41308343 40.04259733 -7.96303299 39.80364944 -11.5 37.0625 C-15.2159392 31.9530836 -14.18422981 26.24025735 -14.1875 20.125 C-14.19974609 18.92746094 -14.21199219 17.72992188 -14.22460938 16.49609375 C-14.22654297 15.34496094 -14.22847656 14.19382812 -14.23046875 13.0078125 C-14.23457764 11.95223145 -14.23868652 10.89665039 -14.24291992 9.80908203 C-13.99672109 6.96208325 -13.57647886 5.36155934 -12 3 C-7.93257571 0.41163909 -4.80310204 -0.70045238 0 0 Z " fill="#222222" transform="translate(143,321)"/>
<path d="M0 0 C5.21466809 0.08190578 5.21466809 0.08190578 8.25 2.25 C11.73238953 7.63187473 10.92858168 13.35966534 11 19.625 C11.03738281 20.85347656 11.07476562 22.08195312 11.11328125 23.34765625 C11.21228086 33.50061644 11.21228086 33.50061644 8.28125 37.16796875 C5.15474795 39.76572413 3.68532923 40.45620658 -0.375 40.375 C-4.21654198 39.20300414 -6.6287466 38.37578105 -9.05712891 35.11914062 C-10.53987973 32.03167874 -10.76177736 30.00295384 -10.7734375 26.59375 C-10.77730469 25.50449219 -10.78117188 24.41523438 -10.78515625 23.29296875 C-10.77355469 22.16503906 -10.76195312 21.03710938 -10.75 19.875 C-10.76160156 18.74707031 -10.77320313 17.61914062 -10.78515625 16.45703125 C-10.78128906 15.36777344 -10.77742187 14.27851563 -10.7734375 13.15625 C-10.77005371 12.16689453 -10.76666992 11.17753906 -10.76318359 10.15820312 C-9.83780329 3.52340098 -6.55007254 0.08780258 0 0 Z " fill="#212121" transform="translate(139.375,244.625)"/>
<path d="M0 0 C0.845625 0.05285156 1.69125 0.10570312 2.5625 0.16015625 C6.0046674 1.25789874 7.02720326 2.94773971 9 5.9375 C9.80856377 10.57351234 9.60300843 15.23852208 9.5625 19.9375 C9.58634766 21.20851563 9.61019531 22.47953125 9.63476562 23.7890625 C9.61840735 34.14930147 9.61840735 34.14930147 6.71484375 37.25 C2.71963618 39.73335204 0.71947417 39.9375 -4 39.9375 C-8.27823633 38.22620547 -9.94485382 35.97658874 -12 31.9375 C-12.38818359 29.26196289 -12.38818359 29.26196289 -12.3984375 26.41015625 C-12.40230469 25.37052734 -12.40617187 24.33089844 -12.41015625 23.25976562 C-12.39855469 22.18404297 -12.38695313 21.10832031 -12.375 20 C-12.38660156 18.92814453 -12.39820312 17.85628906 -12.41015625 16.75195312 C-12.37232382 6.56872298 -12.37232382 6.56872298 -9 1.9375 C-6.02969563 -0.24691134 -3.6132686 -0.30294173 0 0 Z " fill="#191919" transform="translate(103,235.0625)"/>
<path d="M0 0 C1.10794922 -0.05994141 1.10794922 -0.05994141 2.23828125 -0.12109375 C5.09832196 0.53119624 7.28275524 1.48808521 9.48120117 3.46020508 C12.32506976 8.12170916 11.35769464 14.23726274 11.1875 19.5 C11.1771875 20.77939453 11.166875 22.05878906 11.15625 23.37695312 C10.97940188 33.90494261 10.97940188 33.90494261 8.6875 37.4375 C4.67380482 40.09349702 0.3424576 40.27555832 -4.3125 39.4375 C-7.06819447 37.25590855 -8.74838747 35.56572506 -10.3125 32.4375 C-10.58287128 28.33891725 -10.54413672 24.23148957 -10.5625 20.125 C-10.583125 18.98353516 -10.60375 17.84207031 -10.625 16.66601562 C-10.63273437 15.01182617 -10.63273437 15.01182617 -10.640625 13.32421875 C-10.65464355 11.81154419 -10.65464355 11.81154419 -10.66894531 10.26831055 C-10.25077383 6.94728431 -9.291669 5.11726237 -7.3125 2.4375 C-4.3041623 0.43194153 -3.43541351 0.10086706 0 0 Z " fill="#151515" transform="translate(101.3125,311.5625)"/>
<path d="M0 0 C7.3004844 -0.20532612 14.30719423 -0.07182876 21.54760742 0.90698242 C22.95961151 1.09148627 24.37175539 1.27492291 25.7840271 1.45736694 C26.84316629 1.59499765 26.84316629 1.59499765 27.92370224 1.73540878 C56.49796912 5.37674588 84.9998628 5.37819443 113.75946045 5.20599365 C119.56030889 5.17469913 125.36119996 5.16147663 131.16210938 5.14648438 C142.44151361 5.11479453 153.72073554 5.06394475 165 5 C165 5.33 165 5.66 165 6 C142.72918683 7.7960064 120.6005519 8.28940046 98.26452637 8.19561768 C94.93514364 8.18459543 91.60580032 8.1851552 88.27640247 8.18575573 C85.04482366 8.1854846 81.81327131 8.18001875 78.58170128 8.17275429 C77.05270269 8.16958969 75.52370116 8.16760542 73.99469948 8.16686058 C71.88418989 8.16469521 69.77381145 8.15595814 67.66333008 8.14526367 C65.87165154 8.13954597 65.87165154 8.13954597 64.04377747 8.13371277 C61.47979688 8.02107742 59.44210742 7.70647836 57 7 C54.83272048 6.75300752 52.66131875 6.54133558 50.48828125 6.3515625 C49.18375 6.23466064 47.87921875 6.11775879 46.53515625 5.99731445 C45.84566895 5.93661774 45.15618164 5.87592102 44.44580078 5.81338501 C29.59244734 4.50173259 14.79243755 2.88542954 0 1 C0 0.67 0 0.34 0 0 Z " fill="#A4A4A4" transform="translate(150,315)"/>
<path d="M0 0 C0.99 0.33 1.98 0.66 3 1 C2.67 1.99 2.34 2.98 2 4 C1.90246697 6.92875118 1.86008225 9.83299548 1.8671875 12.76171875 C1.86623077 13.62634232 1.86527405 14.49096588 1.86428833 15.38179016 C1.86360766 17.21343051 1.86545405 19.04507327 1.86962891 20.87670898 C1.8749463 23.6593988 1.86969695 26.4419248 1.86328125 29.22460938 C1.86394269 31.00781285 1.8652252 32.79101623 1.8671875 34.57421875 C1.86516327 35.39846848 1.86313904 36.2227182 1.86105347 37.07194519 C1.88123477 42.13329394 2.27766872 46.98923026 3 52 C2.01 51.34 1.02 50.68 0 50 C-0.36076355 47.86129761 -0.36076355 47.86129761 -0.34057617 45.18310547 C-0.34034958 44.18221893 -0.34012299 43.1813324 -0.33988953 42.15011597 C-0.32440567 41.06674957 -0.30892181 39.98338318 -0.29296875 38.8671875 C-0.28872391 37.76021515 -0.28447906 36.6532428 -0.28010559 35.51272583 C-0.26327214 31.9665729 -0.2256108 28.42098203 -0.1875 24.875 C-0.17245922 22.47526861 -0.15876977 20.07552833 -0.14648438 17.67578125 C-0.11335338 11.78366141 -0.06310777 5.89187085 0 0 Z " fill="#8D8D8D" transform="translate(53,131)"/>
<path d="M0 0 C5.625 2.25 5.625 2.25 8 5 C5.03 4.505 5.03 4.505 2 4 C2 19.18 2 34.36 2 50 C1.34 49.67 0.68 49.34 0 49 C0 32.83 0 16.66 0 0 Z " fill="#8B8B8B" transform="translate(53,284)"/>
<path d="M0 0 C1.98 0.99 1.98 0.99 4 2 C3.34 2 2.68 2 2 2 C1.95040389 8.13809036 1.91418751 14.27606293 1.89013672 20.41430664 C1.88010573 22.50059034 1.86647774 24.58686008 1.84912109 26.6730957 C1.82474506 29.67923438 1.81348764 32.68518645 1.8046875 35.69140625 C1.79436493 36.61772354 1.78404236 37.54404083 1.77340698 38.49842834 C1.77250849 43.73480568 2.28559352 48.04364493 4 53 C2.02441406 51.69433594 2.02441406 51.69433594 0 49 C-0.58531964 45.30083582 -0.46401658 41.62743804 -0.390625 37.890625 C-0.38496521 36.80867859 -0.37930542 35.72673218 -0.37347412 34.61199951 C-0.35108999 31.15754893 -0.30088791 27.70413689 -0.25 24.25 C-0.22993772 21.90756707 -0.21168648 19.56511787 -0.1953125 17.22265625 C-0.15121855 11.4814167 -0.08428555 5.74078255 0 0 Z " fill="#888885" transform="translate(53,208)"/>
<path d="M0 0 C2.475 0.99 2.475 0.99 5 2 C4.51267899 2.41198639 4.02535797 2.82397278 3.52326965 3.2484436 C1.68093383 5.36688342 1.62522237 6.2596394 1.62768555 9.02490234 C1.62145676 9.82938812 1.61522797 10.6338739 1.60881042 11.46273804 C1.61802017 12.32839386 1.62722992 13.19404968 1.63671875 14.0859375 C1.63622025 14.97987213 1.63572174 15.87380676 1.63520813 16.79483032 C1.63754871 18.68615948 1.64727627 20.57749174 1.66381836 22.46875 C1.68735378 25.35705604 1.68438622 28.24443529 1.67773438 31.1328125 C1.68331326 32.97135965 1.69042446 34.80990292 1.69921875 36.6484375 C1.69830734 37.51004486 1.69739594 38.37165222 1.69645691 39.2593689 C1.74838981 43.67676546 2.10329826 46.93476268 4 51 C4 51.99 4 52.98 4 54 C1.57046632 51.78693861 0.14380352 49.94477539 -0.35754395 46.65097046 C-0.46274562 43.69112603 -0.44907011 40.75415416 -0.390625 37.79296875 C-0.38213531 36.17217155 -0.38213531 36.17217155 -0.37347412 34.51863098 C-0.35112043 31.07446611 -0.30092391 27.63134935 -0.25 24.1875 C-0.22993379 21.84962442 -0.21168323 19.5117325 -0.1953125 17.17382812 C-0.15125895 11.44886239 -0.08435621 5.72450608 0 0 Z " fill="#848484" transform="translate(53,361)"/>
<path d="M0 0 C1.21236328 0.02707031 1.21236328 0.02707031 2.44921875 0.0546875 C3.37154297 0.08949219 3.37154297 0.08949219 4.3125 0.125 C4.3125 0.455 4.3125 0.785 4.3125 1.125 C2.7346875 1.2178125 2.7346875 1.2178125 1.125 1.3125 C-2.34455646 2.05191367 -4.23191075 2.59615536 -6.6550293 5.17456055 C-9.13582446 9.8610284 -8.4759236 15.76642427 -8.5 20.9375 C-8.52513672 22.20271484 -8.55027344 23.46792969 -8.57617188 24.77148438 C-8.63500491 27.88963543 -8.67131506 31.00638367 -8.6875 34.125 C-11.82199983 30.99050017 -10.98215807 27.58581098 -11.00976562 23.30664062 C-11.00654297 22.15357422 -11.00332031 21.00050781 -11 19.8125 C-11.01611328 18.67103516 -11.03222656 17.52957031 -11.04882812 16.35351562 C-11.04947266 15.25072266 -11.05011719 14.14792969 -11.05078125 13.01171875 C-11.05376221 12.00326904 -11.05674316 10.99481934 -11.05981445 9.95581055 C-10.624231 6.64394815 -9.6612299 4.80092506 -7.6875 2.125 C-4.48369983 -0.01086678 -3.66810033 -0.10632175 0 0 Z " fill="#828282" transform="translate(101.6875,311.875)"/>
<path d="M0 0 C0.91007813 0.00902344 1.82015625 0.01804687 2.7578125 0.02734375 C3.45648438 0.03894531 4.15515625 0.05054688 4.875 0.0625 C5.205 0.7225 5.535 1.3825 5.875 2.0625 C5.27171875 2.01609375 4.6684375 1.9696875 4.046875 1.921875 C-1.17221751 1.55954655 -1.17221751 1.55954655 -5.5625 4.0625 C-6.078125 4.7225 -6.59375 5.3825 -7.125 6.0625 C-7.785 6.0625 -8.445 6.0625 -9.125 6.0625 C-9.21229047 10.12486402 -9.26548992 14.18698589 -9.3125 18.25 C-9.33763672 19.40048828 -9.36277344 20.55097656 -9.38867188 21.73632812 C-9.39833984 22.84814453 -9.40800781 23.95996094 -9.41796875 25.10546875 C-9.4336792 26.12664795 -9.44938965 27.14782715 -9.46557617 28.19995117 C-8.91152985 32.85672044 -6.54089608 35.97192735 -3.125 39.0625 C-6.11851996 38.74176572 -7.10032449 38.08800164 -9.23242188 35.88452148 C-11.41424118 32.63121274 -11.63919144 30.97269169 -11.65625 27.09765625 C-11.66140625 25.96779297 -11.6665625 24.83792969 -11.671875 23.67382812 C-11.65640625 22.50271484 -11.6409375 21.33160156 -11.625 20.125 C-11.64046875 18.95775391 -11.6559375 17.79050781 -11.671875 16.58789062 C-11.64272257 10.19257549 -11.58357783 5.84548928 -7.125 1.0625 C-4.60024538 -0.19987731 -2.81299534 -0.03606404 0 0 Z " fill="#DFDFDF" transform="translate(140.125,397.9375)"/>
<path d="M0 0 C0.02529271 7.08413941 0.04284261 14.16826723 0.05493164 21.25244141 C0.05996974 23.66390417 0.06680034 26.07536386 0.07543945 28.48681641 C0.08752787 31.94694779 0.09323344 35.4070389 0.09765625 38.8671875 C0.10281754 39.95055389 0.10797882 41.03392029 0.11329651 42.15011597 C0.11337204 43.1510025 0.11344757 44.15188904 0.11352539 45.18310547 C0.115746 46.06690887 0.11796661 46.95071228 0.12025452 47.86129761 C0 50 0 50 -1 52 C-1.66 52 -2.32 52 -3 52 C-2.83701416 51.37907471 -2.67402832 50.75814941 -2.50610352 50.1184082 C-1.80034716 45.76981873 -1.87752951 41.50344844 -1.90234375 37.10546875 C-1.90446617 35.68443596 -1.90446617 35.68443596 -1.90663147 34.23469543 C-1.91221389 31.21893105 -1.92476318 28.20324182 -1.9375 25.1875 C-1.94251727 23.13867295 -1.94707978 21.08984473 -1.95117188 19.04101562 C-1.96217757 14.02731494 -1.97943012 9.0136702 -2 4 C-3.98 4.33 -5.96 4.66 -8 5 C-3.22727273 0 -3.22727273 0 0 0 Z " fill="#585858" transform="translate(456,284)"/>
<path d="M0 0 C0.66 0 1.32 0 2 0 C2.10137004 7.04740116 2.17145284 14.09461452 2.21972656 21.14257812 C2.23984936 23.54043606 2.26715059 25.93824488 2.30175781 28.3359375 C2.3502449 31.78137323 2.37296241 35.22616052 2.390625 38.671875 C2.41127014 39.74491882 2.43191528 40.81796265 2.45318604 41.92352295 C2.45348816 42.92425842 2.45379028 43.9249939 2.45410156 44.95605469 C2.46298401 45.83541687 2.47186646 46.71477905 2.48101807 47.62078857 C1.84861563 50.74877732 0.3825782 51.96408055 -2 54 C-1.67547852 52.88415527 -1.35095703 51.76831055 -1.01660156 50.61865234 C0.19431611 45.75188476 0.28883621 41.09607173 0.265625 36.1015625 C0.26753845 35.18539154 0.2694519 34.26922058 0.27142334 33.32528687 C0.27277606 31.40419233 0.26914387 29.48308836 0.26074219 27.56201172 C0.2499552 24.61275017 0.26070625 21.66408749 0.2734375 18.71484375 C0.27211719 16.84374865 0.26955747 14.97265393 0.265625 13.1015625 C0.26967346 12.21828278 0.27372192 11.33500305 0.27789307 10.42495728 C0.46952686 5.729621 0.46952686 5.729621 -2 2 C-1.34 1.34 -0.68 0.68 0 0 Z " fill="#505050" transform="translate(454,207)"/>
<path d="M0 0 C0.75 1.75 0.75 1.75 1 4 C-0.75 6.25 -0.75 6.25 -3 8 C-3.99 8 -4.98 8 -6 8 C-6.33 8.99 -6.66 9.98 -7 11 C-10.5625 12.1875 -10.5625 12.1875 -14 13 C-14 13.66 -14 14.32 -14 15 C-15.98 15.33 -17.96 15.66 -20 16 C-9.33333333 7 -9.33333333 7 -5 7 C-4.731875 6.401875 -4.46375 5.80375 -4.1875 5.1875 C-3.01506533 3.02775192 -1.80630718 1.64209744 0 0 Z " fill="#949494" transform="translate(453,105)"/>
<path d="M0 0 C0.99 0 1.98 0 3 0 C1.98649764 2.18292817 1.02971104 3.9652893 -0.54223633 5.80175781 C-2.33623714 8.50703051 -2.42211788 10.19624382 -2.51171875 13.421875 C-2.54716797 14.44667969 -2.58261719 15.47148437 -2.61914062 16.52734375 C-2.64169922 17.59082031 -2.66425781 18.65429688 -2.6875 19.75 C-2.72166016 20.82894531 -2.75582031 21.90789062 -2.79101562 23.01953125 C-2.87340663 25.67958377 -2.94258645 28.33931035 -3 31 C-3.33 31 -3.66 31 -4 31 C-4.08751413 27.12514365 -4.14056435 23.25054357 -4.1875 19.375 C-4.21263672 18.28058594 -4.23777344 17.18617188 -4.26367188 16.05859375 C-4.31605849 10.29606657 -4.3502377 5.94518713 -1 1 C-0.67 0.67 -0.34 0.34 0 0 Z " fill="#C9C9C9" transform="translate(95,236)"/>
<path d="M0 0 C3.31248078 -0.02945031 6.62492711 -0.04694801 9.9375 -0.0625 C10.86369141 -0.07087891 11.78988281 -0.07925781 12.74414062 -0.08789062 C18.58300303 -0.10837786 24.20913053 0.24570213 30 1 C30 1.33 30 1.66 30 2 C27.9174133 2.19561869 25.83388144 2.38119313 23.75 2.5625 C22.00976562 2.71912109 22.00976562 2.71912109 20.234375 2.87890625 C17.37473494 2.98597007 15.68571887 2.75535843 13 2 C10.75292759 1.7801777 8.50228762 1.59516013 6.25 1.4375 C5.07953125 1.35371094 3.9090625 1.26992188 2.703125 1.18359375 C1.81109375 1.12300781 0.9190625 1.06242187 0 1 C0 0.67 0 0.34 0 0 Z " fill="#C2C2C2" transform="translate(194,320)"/>
<path d="M0 0 C0.90105469 0.01804687 1.80210937 0.03609375 2.73046875 0.0546875 C3.41753906 0.07789063 4.10460937 0.10109375 4.8125 0.125 C5.1425 0.785 5.4725 1.445 5.8125 2.125 C5.20921875 2.07859375 4.6059375 2.0321875 3.984375 1.984375 C-1.23471751 1.62204655 -1.23471751 1.62204655 -5.625 4.125 C-6.140625 4.785 -6.65625 5.445 -7.1875 6.125 C-7.8475 6.125 -8.5075 6.125 -9.1875 6.125 C-8.875 4.25 -8.875 4.25 -8.1875 2.125 C-4.87379 -0.08414 -3.8428979 -0.09981553 0 0 Z " fill="#939393" transform="translate(140.1875,397.875)"/>
<path d="M0 0 C0 0.33 0 0.66 0 1 C-1.546875 1.0928125 -1.546875 1.0928125 -3.125 1.1875 C-7.88462827 2.18548657 -9.53592963 3.70490867 -13 7 C-13 3 -13 3 -11.5625 1.25 C-7.7641917 -0.60283332 -4.15339755 -0.23961909 0 0 Z " fill="#747474" transform="translate(106,312)"/>
<path d="M0 0 C-2.88628401 1.57554035 -5.53342384 2.46276373 -8.75 3.125 C-9.94882813 3.37636719 -9.94882813 3.37636719 -11.171875 3.6328125 C-11.77515625 3.75398438 -12.3784375 3.87515625 -13 4 C-8.62340682 -0.37659318 -5.88808394 -0.39919213 0 0 Z " fill="#939393" transform="translate(111,70)"/>
<path d="M0 0 C-1.90401138 1.90401138 -3.33425686 2.93520439 -6.046875 3.19921875 C-8.03233273 3.1886578 -10.0169914 3.09915043 -12 3 C-7.85930434 0.85826087 -4.68855996 -0.12671784 0 0 Z " fill="#A8A8A8" transform="translate(395,134)"/>
<path d="M0 0 C0 0.66 0 1.32 0 2 C-4.15267176 5.11450382 -4.15267176 5.11450382 -7.3125 4.6875 C-7.869375 4.460625 -8.42625 4.23375 -9 4 C-2.25 0 -2.25 0 0 0 Z " fill="#A4A4A4" transform="translate(439,424)"/>
<path d="M0 0 C0.99 0 1.98 0 3 0 C1.63016497 3.16115776 1.0109362 3.9927092 -2 6 C-1.125 1.125 -1.125 1.125 0 0 Z " fill="#777777" transform="translate(95,236)"/>
<path d="" fill="#FFFFFF" transform="translate(0,0)"/>
<path d="" fill="#FFFFFF" transform="translate(0,0)"/>
<path d="" fill="#FFFFFF" transform="translate(0,0)"/>
<path d="" fill="#FFFFFF" transform="translate(0,0)"/>
<path d="" fill="#FFFFFF" transform="translate(0,0)"/>
<path d="" fill="#FFFFFF" transform="translate(0,0)"/>
<path d="" fill="#FFFFFF" transform="translate(0,0)"/>
<path d="" fill="#FFFFFF" transform="translate(0,0)"/>
<path d="" fill="#FFFFFF" transform="translate(0,0)"/>
<path d="" fill="#FFFFFF" transform="translate(0,0)"/>
<path d="" fill="#FFFFFF" transform="translate(0,0)"/>
<path d="" fill="#FFFFFF" transform="translate(0,0)"/>
<path d="" fill="#FFFFFF" transform="translate(0,0)"/>
<path d="" fill="#FFFFFF" transform="translate(0,0)"/>
<path d="" fill="#FFFFFF" transform="translate(0,0)"/>
<path d="" fill="#FFFFFF" transform="translate(0,0)"/>
<path d="" fill="#FFFFFF" transform="translate(0,0)"/>
<path d="" fill="#FFFFFF" transform="translate(0,0)"/>
<path d="" fill="#FFFFFF" transform="translate(0,0)"/>
<path d="" fill="#FFFFFF" transform="translate(0,0)"/>
<path d="" fill="#FFFFFF" transform="translate(0,0)"/>
<path d="" fill="#FFFFFF" transform="translate(0,0)"/>
<path d="" fill="#FFFFFF" transform="translate(0,0)"/>
<path d="" fill="#FFFFFF" transform="translate(0,0)"/>
<path d="" fill="#FFFFFF" transform="translate(0,0)"/>
<path d="" fill="#FFFFFF" transform="translate(0,0)"/>
<path d="" fill="#FFFFFF" transform="translate(0,0)"/>
<path d="" fill="#FFFFFF" transform="translate(0,0)"/>
<path d="" fill="#FFFFFF" transform="translate(0,0)"/>
<path d="" fill="#FFFFFF" transform="translate(0,0)"/>
<path d="" fill="#FFFFFF" transform="translate(0,0)"/>
<path d="" fill="#FFFFFF" transform="translate(0,0)"/>
<path d="" fill="#FFFFFF" transform="translate(0,0)"/>
<path d="" fill="#FFFFFF" transform="translate(0,0)"/>
<path d="" fill="#FFFFFF" transform="translate(0,0)"/>
<path d="" fill="#FFFFFF" transform="translate(0,0)"/>
<path d="" fill="#FFFFFF" transform="translate(0,0)"/>
<path d="" fill="#FFFFFF" transform="translate(0,0)"/>
<path d="" fill="#FFFFFF" transform="translate(0,0)"/>
<path d="" fill="#FFFFFF" transform="translate(0,0)"/>
<path d="" fill="#FFFFFF" transform="translate(0,0)"/>
<path d="" fill="#FFFFFF" transform="translate(0,0)"/>
<path d="" fill="#FFFFFF" transform="translate(0,0)"/>
<path d="" fill="#FFFFFF" transform="translate(0,0)"/>
<path d="" fill="#FFFFFF" transform="translate(0,0)"/>
<path d="" fill="#FFFFFF" transform="translate(0,0)"/>
<path d="" fill="#FFFFFF" transform="translate(0,0)"/>
<path d="" fill="#FFFFFF" transform="translate(0,0)"/>
<path d="" fill="#FFFFFF" transform="translate(0,0)"/>
<path d="" fill="#FFFFFF" transform="translate(0,0)"/>
<path d="" fill="#FFFFFF" transform="translate(0,0)"/>
<path d="" fill="#FFFFFF" transform="translate(0,0)"/>
<path d="" fill="#FFFFFF" transform="translate(0,0)"/>
<path d="" fill="#FFFFFF" transform="translate(0,0)"/>
<path d="" fill="#FFFFFF" transform="translate(0,0)"/>
<path d="" fill="#FFFFFF" transform="translate(0,0)"/>
<path d="" fill="#FFFFFF" transform="translate(0,0)"/>
<path d="" fill="#FFFFFF" transform="translate(0,0)"/>
<path d="" fill="#FFFFFF" transform="translate(0,0)"/>
<path d="" fill="#FFFFFF" transform="translate(0,0)"/>
</svg>
